<svg version="1.1" id="Layer_1" xmlns="http://www.w3.org/2000/svg" xmlns:xlink="http://www.w3.org/1999/xlink" x="0px" y="0px"
	 width="100%" viewBox="0 0 500 500" enable-background="new 0 0 500 500" xml:space="preserve">
<path fill="#000000" opacity="1.000000" stroke="none" 
	d="
M447.000000,501.000000 
	C298.000031,501.000000 149.500076,501.000000 1.000080,501.000000 
	C1.000053,334.333405 1.000053,167.666824 1.000027,1.000169 
	C167.666550,1.000113 334.333099,1.000113 500.999756,1.000056 
	C500.999817,167.666519 500.999817,334.333038 500.999908,500.999756 
	C483.166656,501.000000 465.333344,501.000000 447.000000,501.000000 
M95.919792,363.391113 
	C96.072487,363.361267 96.225189,363.331421 96.377884,363.301605 
	C96.286278,363.207581 96.194672,363.113556 96.057083,362.821167 
	C95.918480,362.840820 95.779877,362.860443 95.641266,362.880066 
	C95.713539,362.985138 95.785812,363.090179 95.919792,363.391113 
M108.684402,352.016418 
	C108.613907,352.251801 108.543411,352.487183 108.472916,352.722565 
	C108.714790,352.552582 108.956665,352.382629 109.494957,352.092621 
	C109.654251,351.860413 109.813553,351.628204 109.972870,351.395996 
	C109.613487,351.545868 109.254112,351.695740 108.684402,352.016418 
M161.544342,418.135284 
	C161.849426,417.982300 162.154526,417.829285 162.459610,417.676300 
	C162.279922,417.467163 162.100220,417.258026 161.920532,417.048889 
	C161.726440,417.332916 161.532349,417.616943 161.544342,418.135284 
M110.739349,335.305786 
	C111.051178,335.146179 111.363014,334.986572 111.674850,334.826965 
	C111.540092,334.575134 111.405327,334.323303 111.270576,334.071472 
	C111.047699,334.394409 110.824829,334.717346 110.739349,335.305786 
M365.891144,111.790291 
	C365.892120,111.543381 365.893097,111.296463 365.894043,111.049553 
	C365.645477,111.100151 365.396942,111.150749 365.148376,111.201347 
	C365.311859,111.409172 365.475311,111.617004 365.891144,111.790291 
M178.871704,429.025024 
	C178.871704,429.025024 179.048126,428.999725 179.048126,428.999725 
	C179.048126,428.999725 178.877533,428.951508 178.871704,429.025024 
M357.906677,133.824875 
	C358.052551,133.674728 358.198425,133.524582 358.344269,133.374420 
	C358.236115,133.313416 358.043640,133.187256 358.032715,133.201401 
	C357.908905,133.361557 357.812897,133.543182 357.906677,133.824875 
M117.797539,351.074432 
	C117.797539,351.074432 117.824257,351.267456 117.824257,351.267456 
	C117.824257,351.267456 117.876434,351.081421 117.797539,351.074432 
M156.397049,430.639130 
	C156.397049,430.639130 156.644302,430.472961 156.644302,430.472961 
	C156.644302,430.472961 156.355469,430.523438 156.397049,430.639130 
M359.798126,130.768112 
	C359.798126,130.768112 359.862701,130.771851 359.798126,130.768112 
M362.723267,100.575684 
	C362.782959,100.575623 362.842621,100.575562 362.723267,100.575684 
M117.138939,128.114639 
	C117.138939,128.114639 117.189781,128.120789 117.138939,128.114639 
M370.071930,104.501190 
	C370.202240,104.331551 370.332581,104.161911 370.462891,103.992271 
	C370.278473,104.097687 370.094086,104.203110 370.071930,104.501190 
M371.849854,115.480873 
	C371.849854,115.480873 372.137390,115.578995 372.137390,115.578995 
	C372.137390,115.578995 371.953125,115.353722 371.849854,115.480873 
M116.027832,358.500061 
	C116.027832,358.500061 115.979492,358.555359 116.027832,358.500061 
M110.508896,361.028442 
	C110.508896,361.028442 110.475677,360.997375 110.508896,361.028442 
M175.982239,428.458466 
	C175.982239,428.458466 175.999084,428.515717 175.982239,428.458466 
M122.007217,363.456024 
	C122.007217,363.456024 122.025276,363.514526 122.007217,363.456024 
M158.555695,432.499084 
	C158.555695,432.499084 158.468979,432.541809 158.555695,432.499084 
M179.453201,419.503784 
	C179.453201,419.503784 179.519028,419.474304 179.453201,419.503784 
M368.398315,113.493340 
	C368.398315,113.493340 368.506683,113.431061 368.398315,113.493340 
M332.529907,411.487274 
	C332.529907,411.487274 332.484833,411.500519 332.529907,411.487274 
M334.490814,410.458557 
	C334.490814,410.458557 334.516205,410.519318 334.490814,410.458557 
M124.524162,361.482147 
	C124.524162,361.482147 124.477921,361.495972 124.524162,361.482147 
M358.501221,118.436348 
	C358.501221,118.436348 358.550415,118.531982 358.501221,118.436348 
M349.535034,128.498123 
	C349.535034,128.498123 349.480377,128.519760 349.535034,128.498123 
M351.585999,130.505753 
	C351.585999,130.505753 351.459930,130.577484 351.585999,130.505753 
z"/>
<path fill="#080808" opacity="1.000000" stroke="none" 
	d="
M161.441315,418.018127 
	C161.532349,417.616943 161.726440,417.332916 161.920532,417.048889 
	C162.100220,417.258026 162.279922,417.467163 162.459610,417.676300 
	C162.154526,417.829285 161.849426,417.982300 161.441315,418.018127 
z"/>
<path fill="#060606" opacity="1.000000" stroke="none" 
	d="
M110.670654,335.173035 
	C110.824829,334.717346 111.047699,334.394409 111.270569,334.071472 
	C111.405327,334.323303 111.540092,334.575134 111.674850,334.826965 
	C111.363014,334.986572 111.051178,335.146179 110.670654,335.173035 
z"/>
<path fill="#0A0A0A" opacity="1.000000" stroke="none" 
	d="
M365.764954,111.807564 
	C365.475311,111.617004 365.311859,111.409172 365.148376,111.201347 
	C365.396942,111.150749 365.645477,111.100151 365.894043,111.049553 
	C365.893097,111.296463 365.892120,111.543381 365.764954,111.807564 
z"/>
<path fill="#080808" opacity="1.000000" stroke="none" 
	d="
M178.874619,428.988281 
	C178.877533,428.951508 179.048126,428.999725 179.048126,428.999725 
	C179.048126,428.999725 178.871704,429.025024 178.874619,428.988281 
z"/>
<path fill="#060606" opacity="1.000000" stroke="none" 
	d="
M109.198547,352.212646 
	C108.956665,352.382629 108.714790,352.552582 108.472916,352.722565 
	C108.543411,352.487183 108.613907,352.251801 108.865555,352.022736 
	C109.046700,352.029053 109.198547,352.212646 109.198547,352.212646 
z"/>
<path fill="#0A0A0A" opacity="1.000000" stroke="none" 
	d="
M357.808075,133.771973 
	C357.812897,133.543182 357.908905,133.361557 358.032715,133.201401 
	C358.043640,133.187256 358.236115,133.313416 358.344299,133.374420 
	C358.198425,133.524582 358.052551,133.674728 357.808075,133.771973 
z"/>
<path fill="#060606" opacity="1.000000" stroke="none" 
	d="
M117.836990,351.077942 
	C117.876434,351.081421 117.824257,351.267456 117.824257,351.267456 
	C117.824257,351.267456 117.797539,351.074432 117.836990,351.077942 
z"/>
<path fill="#080808" opacity="1.000000" stroke="none" 
	d="
M156.376251,430.581299 
	C156.355469,430.523438 156.644302,430.472961 156.644302,430.472961 
	C156.644302,430.472961 156.397049,430.639130 156.376251,430.581299 
z"/>
<path fill="#060606" opacity="1.000000" stroke="none" 
	d="
M108.970718,351.937317 
	C109.254112,351.695740 109.613487,351.545868 109.972862,351.395996 
	C109.813553,351.628204 109.654251,351.860413 109.346756,352.152649 
	C109.198547,352.212646 109.046700,352.029053 108.970718,351.937317 
z"/>
<path fill="#0A0A0A" opacity="1.000000" stroke="none" 
	d="
M359.830414,130.769989 
	C359.862701,130.771851 359.798126,130.768112 359.830414,130.769989 
z"/>
<path fill="#0A0A0A" opacity="1.000000" stroke="none" 
	d="
M362.812805,100.575592 
	C362.842621,100.575562 362.782959,100.575623 362.812805,100.575592 
z"/>
<path fill="#020202" opacity="1.000000" stroke="none" 
	d="
M117.164360,128.117706 
	C117.189781,128.120789 117.138939,128.114639 117.164360,128.117706 
z"/>
<path fill="#0A0A0A" opacity="1.000000" stroke="none" 
	d="
M369.990784,104.404861 
	C370.094086,104.203110 370.278473,104.097687 370.462891,103.992271 
	C370.332581,104.161911 370.202240,104.331551 369.990784,104.404861 
z"/>
<path fill="#0A0A0A" opacity="1.000000" stroke="none" 
	d="
M371.901489,115.417297 
	C371.953125,115.353722 372.137390,115.578995 372.137390,115.578995 
	C372.137390,115.578995 371.849854,115.480873 371.901489,115.417297 
z"/>
<path fill="#060606" opacity="1.000000" stroke="none" 
	d="
M116.003662,358.527710 
	C115.979492,358.555359 116.027832,358.500061 116.003662,358.527710 
z"/>
<path fill="#060606" opacity="1.000000" stroke="none" 
	d="
M110.492287,361.012909 
	C110.475677,360.997375 110.508896,361.028442 110.492287,361.012909 
z"/>
<path fill="#060606" opacity="1.000000" stroke="none" 
	d="
M95.858086,363.195251 
	C95.785812,363.090179 95.713539,362.985138 95.641266,362.880066 
	C95.779877,362.860443 95.918480,362.840820 96.017235,362.962036 
	C95.977386,363.102905 95.858086,363.195251 95.858086,363.195251 
z"/>
<path fill="#080808" opacity="1.000000" stroke="none" 
	d="
M175.990662,428.487091 
	C175.999084,428.515717 175.982239,428.458466 175.990662,428.487091 
z"/>
<path fill="#060606" opacity="1.000000" stroke="none" 
	d="
M96.040222,363.061218 
	C96.194672,363.113556 96.286278,363.207581 96.377884,363.301575 
	C96.225189,363.331421 96.072487,363.361267 95.888939,363.293182 
	C95.858086,363.195251 95.977386,363.102905 96.040222,363.061218 
z"/>
<path fill="#060606" opacity="1.000000" stroke="none" 
	d="
M122.016251,363.485291 
	C122.025276,363.514526 122.007217,363.456024 122.016251,363.485291 
z"/>
<path fill="#080808" opacity="1.000000" stroke="none" 
	d="
M158.512329,432.520447 
	C158.468979,432.541809 158.555695,432.499084 158.512329,432.520447 
z"/>
<path fill="#080808" opacity="1.000000" stroke="none" 
	d="
M179.486115,419.489044 
	C179.519028,419.474304 179.453201,419.503784 179.486115,419.489044 
z"/>
<path fill="#0A0A0A" opacity="1.000000" stroke="none" 
	d="
M368.452515,113.462204 
	C368.506683,113.431061 368.398315,113.493340 368.452515,113.462204 
z"/>
<path fill="#050505" opacity="1.000000" stroke="none" 
	d="
M332.507385,411.493896 
	C332.484833,411.500519 332.529907,411.487274 332.507385,411.493896 
z"/>
<path fill="#050505" opacity="1.000000" stroke="none" 
	d="
M334.503510,410.488953 
	C334.516205,410.519318 334.490814,410.458557 334.503510,410.488953 
z"/>
<path fill="#060606" opacity="1.000000" stroke="none" 
	d="
M124.501038,361.489075 
	C124.477921,361.495972 124.524162,361.482147 124.501038,361.489075 
z"/>
<path fill="#0A0A0A" opacity="1.000000" stroke="none" 
	d="
M358.525818,118.484161 
	C358.550415,118.531982 358.501221,118.436348 358.525818,118.484161 
z"/>
<path fill="#0A0A0A" opacity="1.000000" stroke="none" 
	d="
M349.507690,128.508942 
	C349.480377,128.519760 349.535034,128.498123 349.507690,128.508942 
z"/>
<path fill="#0A0A0A" opacity="1.000000" stroke="none" 
	d="
M351.522949,130.541626 
	C351.459930,130.577484 351.585999,130.505753 351.522949,130.541626 
z"/>
</svg>